<?xml version="1.0" encoding="utf-8"?>
<!-- Generator: Adobe Illustrator 16.0.0, SVG Export Plug-In . SVG Version: 6.00 Build 0)  -->
<!DOCTYPE svg PUBLIC "-//W3C//DTD SVG 1.1//EN" "http://www.w3.org/Graphics/SVG/1.1/DTD/svg11.dtd">
<svg version="1.1" id="Слой_1" xmlns="http://www.w3.org/2000/svg" xmlns:xlink="http://www.w3.org/1999/xlink" x="0px" y="0px"
	 width="54px" height="55px" viewBox="0 0 54 55" enable-background="new 0 0 54 55" xml:space="preserve">
<g>
	<g>
		<path fill-rule="evenodd" clip-rule="evenodd" d="M36.814,2.892C36.196,2.344,35.392,2,34.5,2C32.566,2,31,3.566,31,5.5
			c0,1.565,1.035,2.876,2.453,3.323l-0.088,0.229C41.286,11.713,47,19.182,47,28c0,11.046-8.954,20-20,20S7,39.046,7,28
			c0-0.49,0.024-0.974,0.062-1.454C7.639,25.853,8,24.973,8,24c0-2.209-1.791-4-4-4s-4,1.791-4,4c0,0.383,0.071,0.746,0.172,1.096
			C0.064,26.05,0,27.017,0,28c0,14.911,12.088,27,27,27s27-12.089,27-27C54,16.559,46.862,6.823,36.814,2.892z M20.5,11
			c3.037,0,5.5-2.463,5.5-5.5C26,2.462,23.537,0,20.5,0S15,2.462,15,5.5C15,8.537,17.463,11,20.5,11z M29.96,31.46
			c1.562-1.562,1.087-4.569-1.061-6.718C26.752,22.595,8.04,9.539,8.04,9.539s13.055,18.713,15.202,20.86
			C25.391,32.547,28.398,33.021,29.96,31.46z"/>
	</g>
</g>
</svg>
