<?xml version="1.0" encoding="utf-8"?>
<!-- Generator: Adobe Illustrator 16.0.0, SVG Export Plug-In . SVG Version: 6.00 Build 0)  -->
<!DOCTYPE svg PUBLIC "-//W3C//DTD SVG 1.1//EN" "http://www.w3.org/Graphics/SVG/1.1/DTD/svg11.dtd">
<svg version="1.1" id="Слой_1" xmlns="http://www.w3.org/2000/svg" xmlns:xlink="http://www.w3.org/1999/xlink" x="0px" y="0px"
	 width="22.002px" height="24.998px" viewBox="0 0 22.002 24.998" enable-background="new 0 0 22.002 24.998" xml:space="preserve">
<path d="M20.692,5.209h-3.405V2.083C17.287,0.932,16.35,0,15.191,0H6.81C5.652,0,4.715,0.932,4.715,2.083v3.126H1.31
	C0.587,5.209,0,5.791,0,6.511c0,0.718,0.587,1.302,1.31,1.302h0.786v15.104c0,1.15,0.938,2.082,2.095,2.082h13.62
	c1.158,0,2.096-0.932,2.096-2.082V7.813h0.786c0.723,0,1.31-0.584,1.31-1.302C22.002,5.791,21.415,5.209,20.692,5.209z
	 M14.668,5.209H7.334V3.75c0-0.636,0.514-1.146,1.152-1.146h5.028c0.64,0,1.153,0.511,1.153,1.146V5.209L14.668,5.209z M7.334,8.854
	v12.5c0,0.572-0.472,1.041-1.048,1.041s-1.048-0.469-1.048-1.041v-12.5c0-0.572,0.472-1.041,1.048-1.041S7.334,8.281,7.334,8.854z
	 M12.049,8.854v12.5c0,0.572-0.472,1.041-1.048,1.041s-1.048-0.469-1.048-1.041v-12.5c0-0.572,0.472-1.041,1.048-1.041
	S12.049,8.281,12.049,8.854z M16.763,8.854v12.5c0,0.572-0.472,1.041-1.047,1.041c-0.576,0-1.048-0.469-1.048-1.041v-12.5
	c0-0.572,0.472-1.041,1.048-1.041C16.291,7.813,16.763,8.281,16.763,8.854z"/>
</svg>
