<?xml version="1.0" encoding="utf-8"?>
<!-- Generator: Adobe Illustrator 16.0.0, SVG Export Plug-In . SVG Version: 6.00 Build 0)  -->
<!DOCTYPE svg PUBLIC "-//W3C//DTD SVG 1.1//EN" "http://www.w3.org/Graphics/SVG/1.1/DTD/svg11.dtd">
<svg version="1.1" id="Слой_1" xmlns="http://www.w3.org/2000/svg" xmlns:xlink="http://www.w3.org/1999/xlink" x="0px" y="0px"
	 width="44.802px" height="55.245px" viewBox="0 0 44.802 55.245" enable-background="new 0 0 44.802 55.245" xml:space="preserve">
<path fill-rule="evenodd" clip-rule="evenodd" d="M44.802,46.722l-3.813,8.523l-6.262-9.84c-3.359,1.427-7.454,2.527-12.166,2.568
	c0,0.001-0.001,0.011-0.001,0.011c-0.054,0-0.105-0.004-0.159-0.004c-0.037,0-0.072,0.004-0.109,0.004l-0.001-0.007
	c-4.614-0.041-8.637-1.096-11.96-2.475l-6.199,9.742l-3.813-8.523l3.146-5.013C1.218,40.108,0,38.83,0,38.83l7.626-9.155
	c0,0,0.816,0.804,2.238,1.833l4.663-7.432c-0.747-1.279-1.182-2.761-1.182-4.346c0-4.055,2.801-7.449,6.583-8.404l-2.134-1.855
	V3.157L21.924,0l4.131,3.157v6.313l-2.063,1.793c3.906,0.866,6.829,4.325,6.829,8.467c0,1.251-0.271,2.438-0.751,3.512l5.092,8.116
	c1.291-0.956,2.03-1.684,2.03-1.684l7.609,9.155c0,0-1.147,1.197-3.244,2.722L44.802,46.722z M22.423,35.982
	c2.05-0.016,3.97-0.389,5.705-0.95l-4.321-6.791c-0.558,0.111-1.133,0.171-1.723,0.171c-0.288,0-0.571-0.016-0.852-0.043
	l-4.284,6.732C18.624,35.621,20.462,35.967,22.423,35.982z"/>
</svg>
