<?xml version="1.0" encoding="utf-8"?>
<!-- Generator: Adobe Illustrator 16.0.0, SVG Export Plug-In . SVG Version: 6.00 Build 0)  -->
<!DOCTYPE svg PUBLIC "-//W3C//DTD SVG 1.1//EN" "http://www.w3.org/Graphics/SVG/1.1/DTD/svg11.dtd">
<svg version="1.1" id="Слой_1" xmlns="http://www.w3.org/2000/svg" xmlns:xlink="http://www.w3.org/1999/xlink" x="0px" y="0px"
	 width="29px" height="27px" viewBox="0 0 29 27" enable-background="new 0 0 29 27" xml:space="preserve">
<g>
	<g>
		<path fill-rule="evenodd" clip-rule="evenodd" d="M28,0H1C0.448,0,0,0.447,0,1v3c0,0.552,0.448,1,1,1h27c0.552,0,1-0.448,1-1V1
			C29,0.447,28.552,0,28,0z M28,11H1c-0.552,0-1,0.448-1,1v3c0,0.552,0.448,1,1,1h27c0.552,0,1-0.448,1-1v-3
			C29,11.448,28.552,11,28,11z M28,22H1c-0.552,0-1,0.447-1,1v3c0,0.552,0.448,1,1,1h27c0.552,0,1-0.448,1-1v-3
			C29,22.447,28.552,22,28,22z"/>
	</g>
</g>
</svg>
