<?xml version="1.0" encoding="utf-8"?>
<!-- Generator: Adobe Illustrator 16.0.0, SVG Export Plug-In . SVG Version: 6.00 Build 0)  -->
<!DOCTYPE svg PUBLIC "-//W3C//DTD SVG 1.1//EN" "http://www.w3.org/Graphics/SVG/1.1/DTD/svg11.dtd">
<svg version="1.1" id="Слой_1" xmlns="http://www.w3.org/2000/svg" xmlns:xlink="http://www.w3.org/1999/xlink" x="0px" y="0px"
	 width="49px" height="51px" viewBox="0 0 49 51" enable-background="new 0 0 49 51" xml:space="preserve">
<path fill-rule="evenodd" clip-rule="evenodd" d="M30,51l6.576-6.576l-9.581-9.58l4.849-4.849l9.58,9.581L49,32v19H30z
	 M32.258,20.692l-4.95-4.95l9.218-9.217L30,0h19v19l-7.525-7.525L32.258,20.692z M19,51H0V32l7.427,7.427l9.648-9.556l4.93,4.883
	l-9.673,9.578L19,51z M16.654,20.506L7.53,11.47L0,19V0h19l-6.462,6.462l9.149,9.06L16.654,20.506z"/>
</svg>
