<?xml version="1.0" encoding="utf-8"?>
<!-- Generator: Adobe Illustrator 16.0.0, SVG Export Plug-In . SVG Version: 6.00 Build 0)  -->
<!DOCTYPE svg PUBLIC "-//W3C//DTD SVG 1.1//EN" "http://www.w3.org/Graphics/SVG/1.1/DTD/svg11.dtd">
<svg version="1.1" id="Слой_1" xmlns="http://www.w3.org/2000/svg" xmlns:xlink="http://www.w3.org/1999/xlink" x="0px" y="0px"
	 width="54.179px" height="54.204px" viewBox="0 0 54.179 54.204" enable-background="new 0 0 54.179 54.204" xml:space="preserve">
<g>
	<g>
		<path d="M17.514,21.95h-4.568v10.396h2.714v-3.475h2.292c2.16,0,3.663-1.081,3.663-3.417C21.615,22.885,19.893,21.95,17.514,21.95
			z M17.193,26.769h-1.533v-2.6h1.751c0.949,0,1.576,0.307,1.576,1.314C18.988,26.696,18.127,26.769,17.193,26.769z M27.089,0
			C12.128,0,0,12.134,0,27.102C0,42.07,12.128,54.204,27.089,54.204c14.961,0,27.09-12.134,27.09-27.102
			C54.179,12.134,42.051,0,27.089,0z M27.089,47.209c-11.1,0-20.099-9.002-20.099-20.107c0-11.105,8.999-20.108,20.099-20.108
			c11.101,0,20.099,9.002,20.099,20.108C47.188,38.207,38.19,47.209,27.089,47.209z M30.82,28.842
			c-0.19-0.671-0.657-1.124-1.314-1.343c1.065-0.481,1.605-1.343,1.605-2.541c0-2.044-1.562-3.008-3.517-3.008H22.18v10.396h2.714
			v-3.869h1.664c1.255,0,1.722,0.467,1.854,1.694c0.073,0.686,0.043,1.547,0.306,2.175h2.758c-0.292-0.394-0.292-0.817-0.335-1.299
			C31.009,29.514,30.98,29.397,30.82,28.842z M26.806,26.55h-1.912v-2.497h1.883c1.124,0,1.664,0.395,1.664,1.212
			C28.44,26.36,27.696,26.55,26.806,26.55z M36.798,21.702c-3.124,0-5.181,2.365-5.181,5.446c0,3.168,2,5.446,5.21,5.446
			c3.152,0,5.064-2.38,5.064-5.432C41.891,23.819,39.892,21.702,36.798,21.702z M36.783,30.361c-1.503,0-2.394-1.212-2.394-3.242
			c0-1.971,0.919-3.212,2.379-3.212s2.35,1.197,2.35,3.168C39.118,29.149,38.257,30.361,36.783,30.361z"/>
	</g>
</g>
</svg>
