<svg xmlns="http://www.w3.org/2000/svg" width="42.718" height="54.203" viewBox="0 0 42.718 54.203"><path fill-rule="evenodd" clip-rule="evenodd" d="M33.564 54.203H0V0h42.718v45.019l-9.154 9.184zm3.051-48.181H6.103V48.18h25.02v-5.42h5.492V6.022zM10.419 25.017h21.879v2.085H10.419v-2.085zm0-5.212h21.879v2.085H10.419v-2.085zm0-9.381h21.879v6.254H10.419v-6.254zm5.143 25.109c2.528 0 4.577 2.022 4.577 4.517 0 2.495-2.049 4.518-4.577 4.518s-4.577-2.022-4.577-4.518c-.001-2.494 2.049-4.517 4.577-4.517z"/></svg>