<svg xmlns="http://www.w3.org/2000/svg" width="54.179" height="54.204" viewBox="0 0 54.179 54.204"><path d="M17.514 21.95h-4.568v10.396h2.714v-3.475h2.292c2.16 0 3.663-1.081 3.663-3.417 0-2.569-1.722-3.504-4.101-3.504zm-.321 4.819H15.66v-2.6h1.751c.949 0 1.576.307 1.576 1.314.001 1.213-.86 1.286-1.794 1.286zM27.089 0C12.128 0 0 12.134 0 27.102s12.128 27.102 27.089 27.102c14.961 0 27.09-12.134 27.09-27.102S42.051 0 27.089 0zm0 47.209c-11.1 0-20.099-9.002-20.099-20.107 0-11.105 8.999-20.108 20.099-20.108 11.101 0 20.099 9.002 20.099 20.108 0 11.105-8.998 20.107-20.099 20.107zm3.731-18.367c-.19-.671-.657-1.124-1.314-1.343 1.065-.481 1.605-1.343 1.605-2.541 0-2.044-1.562-3.008-3.517-3.008H22.18v10.396h2.714v-3.869h1.664c1.255 0 1.722.467 1.854 1.694.073.686.043 1.547.306 2.175h2.758c-.292-.394-.292-.817-.335-1.299-.132-1.533-.161-1.65-.321-2.205zm-4.014-2.292h-1.912v-2.497h1.883c1.124 0 1.664.395 1.664 1.212-.001 1.095-.745 1.285-1.635 1.285zm9.992-4.848c-3.124 0-5.181 2.365-5.181 5.446 0 3.168 2 5.446 5.21 5.446 3.152 0 5.064-2.38 5.064-5.432 0-3.343-1.999-5.46-5.093-5.46zm-.015 8.659c-1.503 0-2.394-1.212-2.394-3.242 0-1.971.919-3.212 2.379-3.212s2.35 1.197 2.35 3.168c0 2.074-.861 3.286-2.335 3.286z"/></svg>