<?xml version="1.0" encoding="utf-8"?>
<!-- Generator: Adobe Illustrator 16.0.0, SVG Export Plug-In . SVG Version: 6.00 Build 0)  -->
<!DOCTYPE svg PUBLIC "-//W3C//DTD SVG 1.1//EN" "http://www.w3.org/Graphics/SVG/1.1/DTD/svg11.dtd">
<svg version="1.1" id="Слой_1" xmlns="http://www.w3.org/2000/svg" xmlns:xlink="http://www.w3.org/1999/xlink" x="0px" y="0px"
	 width="40px" height="40px" viewBox="0 0 40 40" enable-background="new 0 0 40 40" xml:space="preserve">
<g>
	<g>
		<path d="M33,0H7C3.134,0,0,3.134,0,7v26c0,3.866,3.134,7,7,7h26c3.866,0,7-3.134,7-7V7C40,3.134,36.866,0,33,0z M31.769,15.236
			L18.013,28.788c-0.28,0.277-0.737,0.277-1.017,0l-2.034-2.022c-0.278-0.277-0.737-0.731-1.017-1.012l-4.73-4.898
			c-0.139-0.139-0.213-0.331-0.213-0.515c0-0.183,0.074-0.357,0.212-0.497l2.073-1.839c0.141-0.142,0.328-0.211,0.514-0.21
			c0.182,0.001,0.364,0.07,0.503,0.21l4.691,4.715c0.278,0.28,0.736,0.28,1.017,0l10.706-10.518c0.278-0.278,0.735-0.278,1.017,0
			l2.034,2.022C32.049,14.502,32.049,14.959,31.769,15.236z"/>
	</g>
</g>
</svg>
