<svg xmlns="http://www.w3.org/2000/svg" width="22.002" height="24.998" viewBox="0 0 22.002 24.998"><path d="M20.692 5.209h-3.405V2.083A2.088 2.088 0 0 0 15.191 0H6.81a2.088 2.088 0 0 0-2.095 2.083v3.126H1.31C.587 5.209 0 5.791 0 6.511c0 .718.587 1.302 1.31 1.302h.786v15.104c0 1.15.938 2.082 2.095 2.082h13.62a2.089 2.089 0 0 0 2.096-2.082V7.813h.786c.723 0 1.31-.584 1.31-1.302a1.307 1.307 0 0 0-1.311-1.302zm-6.024 0H7.334V3.75c0-.636.514-1.146 1.152-1.146h5.028c.64 0 1.153.511 1.153 1.146v1.459h.001zM7.334 8.854v12.5a1.048 1.048 0 0 1-2.096 0v-12.5a1.048 1.048 0 0 1 2.096 0zm4.715 0v12.5a1.048 1.048 0 0 1-2.096 0v-12.5a1.048 1.048 0 0 1 2.096 0zm4.714 0v12.5a1.048 1.048 0 0 1-2.095 0v-12.5a1.048 1.048 0 0 1 2.095 0z"/></svg>