<svg xmlns="http://www.w3.org/2000/svg" width="54.179" height="54.204" viewBox="0 0 54.179 54.204"><path fill-rule="evenodd" clip-rule="evenodd" d="M27.09 54.204C12.128 54.204 0 42.069 0 27.102 0 12.134 12.128 0 27.09 0c6.441 0 12.35 2.259 16.999 6.015L39.1 11.006c-3.353-2.509-7.501-4.012-12.01-4.012-11.101 0-20.099 9.002-20.099 20.108 0 11.105 8.999 20.107 20.099 20.107s20.099-9.002 20.099-20.107c0-.812-.062-1.608-.156-2.396l5.961-5.537a27.093 27.093 0 0 1 1.186 7.933c-.001 14.967-12.129 27.102-27.09 27.102zM11.069 26.81l5.826-5.828 8.739 8.16L46.605 8.743s1.754 1.319 2.913 2.914c1.171 1.61 1.748 3.497 1.748 3.497L25.633 40.798 11.069 26.81z"/></svg>