<svg xmlns="http://www.w3.org/2000/svg" width="44.802" height="55.245" viewBox="0 0 44.802 55.245"><path fill-rule="evenodd" clip-rule="evenodd" d="M44.802 46.722l-3.813 8.523-6.262-9.84c-3.359 1.427-7.454 2.527-12.166 2.568a.447.447 0 0 1-.001.011c-.054 0-.105-.004-.159-.004-.037 0-.072.004-.109.004l-.001-.007c-4.614-.041-8.637-1.096-11.96-2.475l-6.199 9.742-3.813-8.523 3.146-5.013C1.218 40.108 0 38.83 0 38.83l7.626-9.155s.816.804 2.238 1.833l4.663-7.432a8.588 8.588 0 0 1-1.182-4.346c0-4.055 2.801-7.449 6.583-8.404l-2.134-1.855V3.157L21.924 0l4.131 3.157V9.47l-2.063 1.793c3.906.866 6.829 4.325 6.829 8.467a8.583 8.583 0 0 1-.751 3.512l5.092 8.116c1.291-.956 2.03-1.684 2.03-1.684l7.609 9.155s-1.147 1.197-3.244 2.722l3.245 5.171zm-22.379-10.74c2.05-.016 3.97-.389 5.705-.95l-4.321-6.791a8.816 8.816 0 0 1-2.575.128l-4.284 6.732c1.676.52 3.514.866 5.475.881z"/></svg>