<svg xmlns="http://www.w3.org/2000/svg" width="82.338" height="82.382" viewBox="0 0 82.338 82.382"><path fill-rule="evenodd" clip-rule="evenodd" d="M41.169 82.382C18.432 82.382 0 63.941 0 41.191 0 18.441 18.432 0 41.169 0s41.169 18.441 41.169 41.191c0 22.75-18.432 41.191-41.169 41.191zm0-71.864c-16.932 0-30.657 13.733-30.657 30.675 0 16.941 13.726 30.674 30.657 30.674 16.933 0 30.658-13.733 30.658-30.674 0-16.942-13.725-30.675-30.658-30.675zm13.208 43.03L40.379 45.66a2.62 2.62 0 0 1-1.244-2.823 2.61 2.61 0 0 1-.594-1.646V18.404a2.629 2.629 0 1 1 5.256 0v22.787c0 .117-.02.228-.034.341l13.242 7.461a2.63 2.63 0 0 1-2.628 4.555z"/></svg>