<?xml version="1.0" encoding="utf-8"?>
<!-- Generator: Adobe Illustrator 16.0.0, SVG Export Plug-In . SVG Version: 6.00 Build 0)  -->
<!DOCTYPE svg PUBLIC "-//W3C//DTD SVG 1.1//EN" "http://www.w3.org/Graphics/SVG/1.1/DTD/svg11.dtd">
<svg version="1.1" id="Слой_1" xmlns="http://www.w3.org/2000/svg" xmlns:xlink="http://www.w3.org/1999/xlink" x="0px" y="0px"
	 width="34.006px" height="34.004px" viewBox="0 0 34.006 34.004" enable-background="new 0 0 34.006 34.004" xml:space="preserve">
<path fill-rule="evenodd" clip-rule="evenodd" d="M33.076,33.043c-1.24,1.281-3.252,1.281-4.492,0l-2.375-2.449
	c-1.24-1.281-1.24-3.356,0-4.636c1.24-1.28,3.252-1.28,4.492,0l2.375,2.45C34.316,29.688,34.316,31.763,33.076,33.043z
	 M14.822,30.594C6.635,30.594,0,23.744,0,15.297C0,6.849,6.635,0,14.822,0c8.186,0,14.82,6.849,14.82,15.297
	C29.643,23.744,23.008,30.594,14.822,30.594z M14.822,6.556c-4.678,0-8.471,3.914-8.471,8.741c0,4.827,3.793,8.74,8.471,8.74
	c4.676,0,8.469-3.913,8.469-8.74C23.291,10.469,19.498,6.556,14.822,6.556z"/>
</svg>
