<svg xmlns="http://www.w3.org/2000/svg" width="34.006" height="34.004" viewBox="0 0 34.006 34.004"><path fill-rule="evenodd" clip-rule="evenodd" d="M33.076 33.043a3.106 3.106 0 0 1-4.492 0l-2.375-2.449a3.354 3.354 0 0 1 0-4.636 3.107 3.107 0 0 1 4.492 0l2.375 2.45a3.353 3.353 0 0 1 0 4.635zm-18.254-2.449C6.635 30.594 0 23.744 0 15.297 0 6.849 6.635 0 14.822 0c8.186 0 14.82 6.849 14.82 15.297.001 8.447-6.634 15.297-14.82 15.297zm0-24.038c-4.678 0-8.471 3.914-8.471 8.741s3.793 8.74 8.471 8.74c4.676 0 8.469-3.913 8.469-8.74 0-4.828-3.793-8.741-8.469-8.741z"/></svg>