<svg xmlns="http://www.w3.org/2000/svg" width="54" height="55" viewBox="0 0 54 55"><path fill-rule="evenodd" clip-rule="evenodd" d="M36.814 2.892A3.475 3.475 0 0 0 34.5 2 3.499 3.499 0 0 0 31 5.5a3.489 3.489 0 0 0 2.453 3.323l-.088.229C41.286 11.713 47 19.182 47 28c0 11.046-8.954 20-20 20S7 39.046 7 28c0-.49.024-.974.062-1.454A3.964 3.964 0 0 0 8 24a4 4 0 0 0-8 0c0 .383.071.746.172 1.096A25.776 25.776 0 0 0 0 28c0 14.911 12.088 27 27 27s27-12.089 27-27c0-11.441-7.138-21.177-17.186-25.108zM20.5 11a5.5 5.5 0 1 0-.001-11.001A5.5 5.5 0 0 0 20.5 11zm9.46 20.46c1.562-1.562 1.087-4.569-1.061-6.718C26.752 22.595 8.04 9.539 8.04 9.539s13.055 18.713 15.202 20.86c2.149 2.148 5.156 2.622 6.718 1.061z"/></svg>