<svg xmlns="http://www.w3.org/2000/svg" width="54.489" height="54.48" viewBox="0 0 54.489 54.48"><path fill-rule="evenodd" clip-rule="evenodd" d="M48.123 34.242l-23.076 18.14c-5 3.93-13.442 2.138-19.264-3.684C-.039 42.876-1.832 34.434 2.1 29.434l4.881-6.21c-1.865-2.474-1.552-6.212.935-8.891l5.468-5.89c1.973-2.125 4.772-2.981 7.217-2.491 6.574-7.82 19.133-8.156 27.609.32 8.627 8.627 8.144 21.499-.087 27.97zM19.566 11.384c-.029-.025-.064-.04-.094-.063a2.67 2.67 0 0 0-.536-.651c-1.305-1.116-3.446-.873-4.784.544l-2.606 2.763c-1.337 1.417-1.363 3.47-.059 4.587.028.025.063.04.094.063.146.236.314.46.536.65 1.305 1.117 3.446.873 4.783-.543l2.607-2.763c1.338-1.417 1.364-3.471.059-4.587zm23.347-1.806c-5.328-5.333-12.555-4.198-17.86-.423 2.376 2.438 2.236 6.544-.442 9.43l-5.468 5.889c-2.398 2.584-5.023 3.32-7.736 1.993l-3.33 4.12c-2.884 3.672-2.568 7.872 1.703 12.147 4.272 4.275 10.469 5.592 14.137 2.705L42.85 30.118c6.04-4.752 6.394-14.204.063-20.54z"/></svg>