<?xml version="1.0" encoding="utf-8"?>
<!-- Generator: Adobe Illustrator 16.0.0, SVG Export Plug-In . SVG Version: 6.00 Build 0)  -->
<!DOCTYPE svg PUBLIC "-//W3C//DTD SVG 1.1//EN" "http://www.w3.org/Graphics/SVG/1.1/DTD/svg11.dtd">
<svg version="1.1" id="Слой_1" xmlns="http://www.w3.org/2000/svg" xmlns:xlink="http://www.w3.org/1999/xlink" x="0px" y="0px"
	 width="82.338px" height="82.382px" viewBox="0 0 82.338 82.382" enable-background="new 0 0 82.338 82.382" xml:space="preserve">
<path fill-rule="evenodd" clip-rule="evenodd" d="M41.169,82.382C18.432,82.382,0,63.941,0,41.191C0,18.441,18.432,0,41.169,0
	s41.169,18.441,41.169,41.191C82.338,63.941,63.906,82.382,41.169,82.382z M41.169,10.518c-16.932,0-30.657,13.733-30.657,30.675
	c0,16.941,13.726,30.674,30.657,30.674c16.933,0,30.658-13.733,30.658-30.674C71.827,24.251,58.102,10.518,41.169,10.518z
	 M54.377,53.548L40.379,45.66c-1.012-0.585-1.475-1.739-1.244-2.823c-0.365-0.452-0.594-1.019-0.594-1.646V18.404
	c0-1.452,1.177-2.629,2.628-2.629s2.628,1.178,2.628,2.629v22.787c0,0.117-0.02,0.228-0.034,0.341l13.242,7.461
	c1.257,0.727,1.688,2.334,0.962,3.592C57.241,53.841,55.635,54.273,54.377,53.548z"/>
</svg>
