<?xml version="1.0" encoding="utf-8"?>
<!-- Generator: Adobe Illustrator 16.0.0, SVG Export Plug-In . SVG Version: 6.00 Build 0)  -->
<!DOCTYPE svg PUBLIC "-//W3C//DTD SVG 1.1//EN" "http://www.w3.org/Graphics/SVG/1.1/DTD/svg11.dtd">
<svg version="1.1" id="Слой_1" xmlns="http://www.w3.org/2000/svg" xmlns:xlink="http://www.w3.org/1999/xlink" x="0px" y="0px"
	 width="29.02px" height="26.02px" viewBox="0 0 29.02 26.02" enable-background="new 0 0 29.02 26.02" xml:space="preserve">
<g>
	<g>
		<path d="M25.99,16.56c0.373-1.193,0.588-2.455,0.588-3.766C26.578,5.792,20.942,0.09,13.983,0v4.11
			c4.701,0.09,8.499,3.947,8.499,8.684c0,0.657-0.084,1.292-0.225,1.907l-3.83-1.907l2.668,7.95l7.924-2.678L25.99,16.56z
			 M6.537,13.225c0-0.658,0.084-1.292,0.224-1.908l3.831,1.908L7.924,5.273L0,7.953l3.029,1.506
			c-0.372,1.192-0.587,2.454-0.587,3.767c0,7.003,5.636,12.703,12.595,12.794v-4.109C10.336,21.82,6.537,17.962,6.537,13.225z"/>
	</g>
</g>
</svg>
