<?xml version="1.0" encoding="utf-8"?>
<!-- Generator: Adobe Illustrator 16.0.0, SVG Export Plug-In . SVG Version: 6.00 Build 0)  -->
<!DOCTYPE svg PUBLIC "-//W3C//DTD SVG 1.1//EN" "http://www.w3.org/Graphics/SVG/1.1/DTD/svg11.dtd">
<svg version="1.1" id="Слой_1" xmlns="http://www.w3.org/2000/svg" xmlns:xlink="http://www.w3.org/1999/xlink" x="0px" y="0px"
	 width="44.495px" height="46.044px" viewBox="0 0 44.495 46.044" enable-background="new 0 0 44.495 46.044" xml:space="preserve">
<path d="M37.59,5.058c0.26-0.46,0.521-1.051,0.521-1.773c0-1.84-1.433-3.284-3.257-3.284c-1.628,0-2.345,0.985-2.671,1.511
	L6.971,40.92c-0.26,0.526-0.521,1.117-0.521,1.839c0,1.84,1.433,3.285,3.257,3.285c1.628,0,2.345-0.985,2.671-1.511L37.59,5.058z
	 M14.397,10.115c0,2.43-1.954,4.4-4.495,4.4c-2.41,0-4.365-1.971-4.365-4.4c0-2.431,1.955-4.401,4.365-4.401
	C12.443,5.714,14.397,7.685,14.397,10.115z M19.935,10.115c0-5.518-4.56-10.05-9.967-10.05C4.495,0.065,0,4.598,0,10.115
	c0,5.583,4.495,10.049,9.968,10.049C15.375,20.164,19.935,15.632,19.935,10.115z M30.098,35.994c0-2.431,1.955-4.467,4.495-4.467
	c2.411,0,4.365,2.036,4.365,4.467s-1.955,4.401-4.365,4.401C32.052,40.396,30.098,38.425,30.098,35.994z M24.561,35.994
	c0,5.518,4.56,10.05,9.967,10.05c5.472,0,9.967-4.532,9.967-10.05c0-5.583-4.495-10.05-9.967-10.05
	C29.121,25.944,24.561,30.477,24.561,35.994z"/>
</svg>
