<?xml version="1.0" encoding="utf-8"?>
<!-- Generator: Adobe Illustrator 16.0.0, SVG Export Plug-In . SVG Version: 6.00 Build 0)  -->
<!DOCTYPE svg PUBLIC "-//W3C//DTD SVG 1.1//EN" "http://www.w3.org/Graphics/SVG/1.1/DTD/svg11.dtd">
<svg version="1.1" id="Слой_1" xmlns="http://www.w3.org/2000/svg" xmlns:xlink="http://www.w3.org/1999/xlink" x="0px" y="0px"
	 width="54.179px" height="54.204px" viewBox="0 0 54.179 54.204" enable-background="new 0 0 54.179 54.204" xml:space="preserve">
<path fill-rule="evenodd" clip-rule="evenodd" d="M27.09,54.204C12.128,54.204,0,42.069,0,27.102C0,12.134,12.128,0,27.09,0
	c6.441,0,12.35,2.259,16.999,6.015L39.1,11.006c-3.353-2.509-7.501-4.012-12.01-4.012c-11.101,0-20.099,9.002-20.099,20.108
	c0,11.105,8.999,20.107,20.099,20.107c11.1,0,20.099-9.002,20.099-20.107c0-0.812-0.062-1.608-0.156-2.396l5.961-5.537
	c0.767,2.51,1.186,5.171,1.186,7.933C54.179,42.069,42.051,54.204,27.09,54.204z M11.069,26.81l5.826-5.828l8.739,8.16L46.605,8.743
	c0,0,1.754,1.319,2.913,2.914c1.171,1.61,1.748,3.497,1.748,3.497L25.633,40.798L11.069,26.81z"/>
</svg>
