<?xml version="1.0" encoding="utf-8"?>
<!-- Generator: Adobe Illustrator 16.0.0, SVG Export Plug-In . SVG Version: 6.00 Build 0)  -->
<!DOCTYPE svg PUBLIC "-//W3C//DTD SVG 1.1//EN" "http://www.w3.org/Graphics/SVG/1.1/DTD/svg11.dtd">
<svg version="1.1" id="Слой_1" xmlns="http://www.w3.org/2000/svg" xmlns:xlink="http://www.w3.org/1999/xlink" x="0px" y="0px"
	 width="54.489px" height="54.48px" viewBox="0 0 54.489 54.48" enable-background="new 0 0 54.489 54.48" xml:space="preserve">
<path fill-rule="evenodd" clip-rule="evenodd" d="M48.123,34.242l-23.076,18.14c-5,3.93-13.442,2.138-19.264-3.684
	C-0.039,42.876-1.832,34.434,2.1,29.434l4.881-6.21c-1.865-2.474-1.552-6.212,0.935-8.891l5.468-5.89
	c1.973-2.125,4.772-2.981,7.217-2.491c6.574-7.82,19.133-8.156,27.609,0.32C56.837,14.899,56.354,27.771,48.123,34.242z
	 M19.566,11.384c-0.029-0.025-0.064-0.04-0.094-0.063c-0.145-0.237-0.314-0.461-0.536-0.651c-1.305-1.116-3.446-0.873-4.784,0.544
	l-2.606,2.763c-1.337,1.417-1.363,3.47-0.059,4.587c0.028,0.025,0.063,0.04,0.094,0.063c0.146,0.236,0.314,0.46,0.536,0.65
	c1.305,1.117,3.446,0.873,4.783-0.543l2.607-2.763C20.845,14.554,20.871,12.5,19.566,11.384z M42.913,9.578
	c-5.328-5.333-12.555-4.198-17.86-0.423c2.376,2.438,2.236,6.544-0.442,9.43l-5.468,5.889c-2.398,2.584-5.023,3.32-7.736,1.993
	l-3.33,4.12c-2.884,3.672-2.568,7.872,1.703,12.147c4.272,4.275,10.469,5.592,14.137,2.705L42.85,30.118
	C48.89,25.366,49.244,15.914,42.913,9.578z"/>
</svg>
